<?xml version="1.0" encoding="UTF-8"?>
<svg xmlns="http://www.w3.org/2000/svg" xmlns:xlink="http://www.w3.org/1999/xlink" viewBox="0 0 20 20" width="20px" height="20px">
<g id="surface59727601">
<path style=" stroke:none;fill-rule:nonzero;fill:rgb(10.196079%,73.725492%,61.176473%);fill-opacity:1;" d="M 5 1.875 C 4.316406 1.875 3.75 2.441406 3.75 3.125 L 3.75 16.875 C 3.75 17.558594 4.316406 18.125 5 18.125 L 15 18.125 C 15.683594 18.125 16.25 17.558594 16.25 16.875 L 16.25 5.996094 L 16.074219 5.800781 L 12.324219 2.050781 L 12.128906 1.875 Z M 5 3.125 L 10.625 3.125 L 10.625 6.25 C 10.625 6.933594 11.191406 7.5 11.875 7.5 L 15 7.5 L 15 16.875 L 5 16.875 Z M 11.875 3.398438 L 14.726562 6.25 L 11.875 6.25 Z M 6.875 9.375 L 6.875 10.625 L 13.125 10.625 L 13.125 9.375 Z M 6.875 11.25 L 6.875 12.5 L 13.125 12.5 L 13.125 11.25 Z M 6.875 13.125 L 6.875 14.375 L 10 14.375 L 10 13.125 Z M 6.875 13.125 "/>
</g>
</svg>
