<svg id="Layer_1" enable-background="new 0 0 512.186 512.186" height="512" viewBox="0 0 512.186 512.186" width="512" xmlns="http://www.w3.org/2000/svg"><g><g><ellipse cx="256.093" cy="256.093" fill="#ffeb00" rx="256.093" ry="256.008"/><path d="m256.093.085c-.03 0-.061.001-.091.001v512.013c.03 0 .061.001.091.001 141.436 0 256.093-114.618 256.093-256.008s-114.657-256.007-256.093-256.007z" fill="#fb0"/><ellipse cx="159.433" cy="197.357" fill="#132c63" rx="38.935" ry="38.922"/><ellipse cx="351.061" cy="197.357" fill="#000f35" rx="38.935" ry="38.922"/></g><path d="m395.943 299.726h-279.886c-6.345 0-11.245 5.515-10.58 11.825 1.526 14.475 5.826 28.263 12.434 40.973l138.182 26.648 137.997-26.648c6.608-12.71 10.907-26.497 12.434-40.973.664-6.31-4.236-11.825-10.581-11.825z" fill="#132c63"/><path d="m395.943 299.726h-139.941v79.428l.091.018 137.997-26.648c6.608-12.71 10.907-26.498 12.433-40.973.665-6.31-4.235-11.825-10.58-11.825z" fill="#000f35"/><path d="m117.91 352.524c23.564 45.322 76.525 76.915 138.09 76.915s114.526-31.592 138.09-76.915z" fill="#ff9ac9"/><path d="m256.002 429.438c61.564-.001 114.524-31.593 138.088-76.915h-138.088z" fill="#ff5ca8"/></g></svg>