<?xml version="1.0" encoding="UTF-8"?>
<svg xmlns="http://www.w3.org/2000/svg" xmlns:xlink="http://www.w3.org/1999/xlink" viewBox="0 0 18 18" width="18px" height="18px">
<g id="surface16829080">
<path style="fill-rule:nonzero;fill:rgb(100%,100%,100%);fill-opacity:1;stroke-width:12;stroke-linecap:butt;stroke-linejoin:round;stroke:rgb(100%,100%,100%);stroke-opacity:1;stroke-miterlimit:10;" d="M 116.94478 10.303689 C 141.628359 10.303689 161.69631 30.37164 161.69631 55.055219 L 161.69631 116.94478 C 161.69631 141.628359 141.628359 161.69631 116.94478 161.69631 L 55.055219 161.69631 C 30.37164 161.69631 10.303689 141.628359 10.303689 116.94478 L 10.303689 55.055219 C 10.303689 30.37164 30.37164 10.303689 55.055219 10.303689 Z M 17.207064 55.055219 L 17.207064 116.94478 C 17.207064 137.89572 34.104278 154.792935 55.055219 154.792935 L 116.94478 154.792935 C 137.89572 154.792935 154.792935 137.89572 154.792935 116.94478 L 154.792935 55.055219 C 154.792935 34.104278 137.89572 17.207064 116.94478 17.207064 L 55.055219 17.207064 C 34.104278 17.207064 17.207064 34.104278 17.207064 55.055219 Z M 134.163081 44.700156 C 134.163081 48.513067 131.072617 51.603532 127.299842 51.603532 C 123.486932 51.603532 120.396467 48.513067 120.396467 44.700156 C 120.396467 40.927382 123.486932 37.836917 127.299842 37.836917 C 131.072617 37.836917 134.163081 40.927382 134.163081 44.700156 Z M 123.848155 85.999999 C 123.848155 106.870668 106.870668 123.848155 85.999999 123.848155 C 65.12933 123.848155 48.151844 106.870668 48.151844 85.999999 C 48.151844 65.12933 65.12933 48.151844 85.999999 48.151844 C 106.870668 48.151844 123.848155 65.12933 123.848155 85.999999 Z M 55.055219 85.999999 C 55.055219 103.138029 68.861969 116.94478 85.999999 116.94478 C 103.138029 116.94478 116.94478 103.138029 116.94478 85.999999 C 116.94478 68.861969 103.138029 55.055219 85.999999 55.055219 C 68.861969 55.055219 55.055219 68.861969 55.055219 85.999999 Z M 55.055219 85.999999 " transform="matrix(0.0973256,0,0,0.0973256,0.63,0.63)"/>
<path style=" stroke:none;fill-rule:nonzero;fill:rgb(100%,100%,100%);fill-opacity:1;" d="M 5.988281 1.632812 C 3.585938 1.632812 1.632812 3.585938 1.632812 5.988281 L 1.632812 12.011719 C 1.632812 14.414062 3.585938 16.367188 5.988281 16.367188 L 12.011719 16.367188 C 14.414062 16.367188 16.367188 14.414062 16.367188 12.011719 L 16.367188 5.988281 C 16.367188 3.585938 14.414062 1.632812 12.011719 1.632812 Z M 5.988281 2.304688 L 12.011719 2.304688 C 14.050781 2.304688 15.695312 3.949219 15.695312 5.988281 L 15.695312 12.011719 C 15.695312 14.050781 14.050781 15.695312 12.011719 15.695312 L 5.988281 15.695312 C 3.949219 15.695312 2.304688 14.050781 2.304688 12.011719 L 2.304688 5.988281 C 2.304688 3.949219 3.949219 2.304688 5.988281 2.304688 Z M 13.019531 4.3125 C 12.648438 4.3125 12.347656 4.613281 12.347656 4.980469 C 12.347656 5.351562 12.648438 5.652344 13.019531 5.652344 C 13.386719 5.652344 13.6875 5.351562 13.6875 4.980469 C 13.6875 4.613281 13.386719 4.3125 13.019531 4.3125 Z M 9 5.316406 C 6.96875 5.316406 5.316406 6.96875 5.316406 9 C 5.316406 11.03125 6.96875 12.683594 9 12.683594 C 11.03125 12.683594 12.683594 11.03125 12.683594 9 C 12.683594 6.96875 11.03125 5.316406 9 5.316406 Z M 9 5.988281 C 10.667969 5.988281 12.011719 7.332031 12.011719 9 C 12.011719 10.667969 10.667969 12.011719 9 12.011719 C 7.332031 12.011719 5.988281 10.667969 5.988281 9 C 5.988281 7.332031 7.332031 5.988281 9 5.988281 Z M 9 5.988281 "/>
</g>
</svg>
