<?xml version="1.0" standalone="no"?>
<svg xmlns:xlink="http://www.w3.org/1999/xlink" id="wave" style="transform:rotate(180deg); transition: 0.3s" viewBox="0 0 1440 490" version="1.1" xmlns="http://www.w3.org/2000/svg"><defs><linearGradient id="sw-gradient-0" x1="0" x2="0" y1="1" y2="0"><stop stop-color="rgba(0, 170, 155, 1)" offset="0%"/><stop stop-color="rgba(54.811, 130.204, 123.551, 1)" offset="100%"/></linearGradient></defs><path style="transform:translate(0, 0px); opacity:1" fill="url(#sw-gradient-0)" d="M0,196L60,163.3C120,131,240,65,360,49C480,33,600,65,720,98C840,131,960,163,1080,187.8C1200,212,1320,229,1440,212.3C1560,196,1680,147,1800,179.7C1920,212,2040,327,2160,318.5C2280,310,2400,180,2520,163.3C2640,147,2760,245,2880,310.3C3000,376,3120,408,3240,351.2C3360,294,3480,147,3600,81.7C3720,16,3840,33,3960,89.8C4080,147,4200,245,4320,236.8C4440,229,4560,114,4680,106.2C4800,98,4920,196,5040,228.7C5160,261,5280,229,5400,228.7C5520,229,5640,261,5760,236.8C5880,212,6000,131,6120,114.3C6240,98,6360,147,6480,163.3C6600,180,6720,163,6840,171.5C6960,180,7080,212,7200,187.8C7320,163,7440,82,7560,81.7C7680,82,7800,163,7920,212.3C8040,261,8160,278,8280,236.8C8400,196,8520,98,8580,49L8640,0L8640,490L8580,490C8520,490,8400,490,8280,490C8160,490,8040,490,7920,490C7800,490,7680,490,7560,490C7440,490,7320,490,7200,490C7080,490,6960,490,6840,490C6720,490,6600,490,6480,490C6360,490,6240,490,6120,490C6000,490,5880,490,5760,490C5640,490,5520,490,5400,490C5280,490,5160,490,5040,490C4920,490,4800,490,4680,490C4560,490,4440,490,4320,490C4200,490,4080,490,3960,490C3840,490,3720,490,3600,490C3480,490,3360,490,3240,490C3120,490,3000,490,2880,490C2760,490,2640,490,2520,490C2400,490,2280,490,2160,490C2040,490,1920,490,1800,490C1680,490,1560,490,1440,490C1320,490,1200,490,1080,490C960,490,840,490,720,490C600,490,480,490,360,490C240,490,120,490,60,490L0,490Z"/></svg>